<svg width="46" height="48" viewBox="0 0 46 48" fill="none" xmlns="http://www.w3.org/2000/svg">
<path fill-rule="evenodd" clip-rule="evenodd" d="M41.4667 25.5295C38.8048 23.8153 35.4931 23.5317 32.5855 24.7514C26.8219 27.0977 21.0622 29.4439 15.2985 31.7902C15.9323 29.2332 16.5621 26.6762 17.1959 24.1193L18.3447 19.3133C19.8857 13.0363 21.4306 6.75938 22.9715 0.482422C15.3183 16.1606 7.66113 31.8388 0 47.517L34.3998 28.0864C35.2871 27.6853 36.2814 27.6123 37.2044 27.9243C38.4918 28.3579 39.3831 29.4318 39.704 30.615C40.1437 32.2238 39.5059 33.8366 38.4245 34.7605C37.7312 35.3521 36.8598 35.6601 35.9526 35.6885C35.4496 35.6804 34.9504 35.575 34.487 35.3805C33.8492 35.1131 33.4451 34.7402 33.1084 34.412C32.7876 34.1 32.3677 33.6948 32.1934 33.4921C31.7418 32.9775 31.1991 32.4224 30.6366 31.8834C28.8065 32.9208 26.9764 33.9622 25.1462 34.9996C26.2871 36.5638 27.4279 38.1239 28.5648 39.6881C31.1001 43.1811 35.5763 44.5791 39.5416 43.1568C43.5702 41.7142 46.0698 37.743 45.9945 33.6623C45.9272 30.1004 43.9307 27.122 41.4667 25.5335" fill="#E94530"/>
<g opacity="0.6">
<path d="M0 47.517L34.3998 28.0864C35.2871 27.6853 36.2814 27.6123 37.2044 27.9243C38.4918 28.3579 39.3831 29.4318 39.704 30.615C40.1437 32.2238 39.5059 33.8366 38.4245 34.7605C37.7312 35.3521 36.8598 35.6642 35.9526 35.6885C35.4495 35.6804 34.9504 35.575 34.487 35.3805C33.8492 35.1131 33.4451 34.7402 33.1084 34.412C32.7876 34.1 32.3677 33.6948 32.1934 33.4921C31.7418 32.9775 31.1991 32.4224 30.6366 31.8834C28.8065 32.9208 26.9803 33.9622 25.1502 34.9996C26.2911 36.5638 27.4319 38.1239 28.5688 39.6881C31.108 43.1811 35.5803 44.5791 39.5455 43.1568C43.5741 41.7142 46.0737 37.7389 45.9985 33.6583C45.9311 30.0964 43.9346 27.1179 41.4707 25.5295C38.8087 23.8153 35.4971 23.5317 32.5935 24.7514C26.8298 27.0977 21.0701 29.4439 15.3064 31.7902C15.9402 29.2332 16.5701 26.6762 17.2039 24.1193L18.3526 19.3133C19.8936 13.0363 21.4345 6.75938 22.9755 0.482422C15.3183 16.1606 7.66113 31.8388 0 47.517Z" fill="url(#paint0_linear_2966_422)"/>
</g>
<path opacity="0.9" d="M36.499 27.7627C36.7367 27.7951 36.9704 27.8478 37.2002 27.9248C38.4876 28.3584 39.3789 29.4363 39.6998 30.6155C40.1395 32.2242 39.5017 33.837 38.4203 34.761C37.727 35.3526 36.8556 35.6606 35.9484 35.6889C35.4453 35.6808 34.9462 35.5755 34.4827 35.3809C33.845 35.1094 33.4409 34.7407 33.1042 34.4084C32.7834 34.0964 32.3635 33.6912 32.1892 33.4885C31.7376 32.9739 31.1949 32.4187 30.6324 31.8798C28.8023 32.9172 26.9761 33.9586 25.146 34.996C26.2868 36.5602 27.4277 38.1203 28.5646 39.6844C31.1038 43.1775 35.5761 44.5755 39.5413 43.1532C43.5699 41.7106 46.0695 37.7394 45.9942 33.6587C45.9507 31.3854 45.1228 29.3512 43.8868 27.7667H36.4951L36.499 27.7627Z" fill="url(#paint1_linear_2966_422)"/>
<path d="M0 47.517L34.3998 28.0864C35.2871 27.6853 36.2814 27.6123 37.2044 27.9243C38.4918 28.3579 39.3831 29.4318 39.704 30.615C40.1437 32.2238 39.5059 33.8366 38.4245 34.7605C37.7312 35.3521 36.8598 35.6642 35.9526 35.6885C35.4495 35.6804 34.9504 35.575 34.487 35.3805C33.8492 35.1131 33.4451 34.7402 33.1084 34.412C32.7876 34.1 32.3677 33.6948 32.1934 33.4921C31.7418 32.9775 31.1991 32.4224 30.6366 31.8834C28.8065 32.9208 26.9803 33.9622 25.1502 34.9996C26.2911 36.5638 27.4319 38.1239 28.5688 39.6881C31.108 43.1811 35.5803 44.5791 39.5455 43.1568C43.5741 41.7142 46.0737 37.7389 45.9985 33.6583C45.9311 30.0964 43.9346 27.1179 41.4707 25.5295C38.8087 23.8153 35.4971 23.5317 32.5935 24.7514C26.8298 27.0977 21.0701 29.4439 15.3064 31.7902C15.9402 29.2332 16.5701 26.6762 17.2039 24.1193L18.3526 19.3133C19.8936 13.0363 21.4345 6.75938 22.9755 0.482422C15.3183 16.1606 7.66113 31.8388 0 47.517Z" fill="url(#paint2_linear_2966_422)"/>
<path fill-rule="evenodd" clip-rule="evenodd" d="M25.0866 26.2064C23.4546 26.875 21.8186 27.5396 20.1865 28.2082C19.1922 26.8466 18.194 25.4851 17.1997 24.1195L18.3485 19.3135L25.0866 26.2064Z" fill="#B81B30"/>
<defs>
<linearGradient id="paint0_linear_2966_422" x1="22.1515" y1="40.4337" x2="14.7708" y2="52.9968" gradientUnits="userSpaceOnUse">
<stop stop-color="#E94530" stop-opacity="0"/>
<stop offset="1" stop-color="#B81B30"/>
</linearGradient>
<linearGradient id="paint1_linear_2966_422" x1="35.5721" y1="35.616" x2="35.5721" y2="44.0042" gradientUnits="userSpaceOnUse">
<stop stop-color="#E94530"/>
<stop offset="0.32" stop-color="#D33230"/>
<stop offset="0.73" stop-color="#BF2130"/>
<stop offset="1" stop-color="#B81B30"/>
</linearGradient>
<linearGradient id="paint2_linear_2966_422" x1="25.2492" y1="31.6322" x2="32.2579" y2="3.05483" gradientUnits="userSpaceOnUse">
<stop stop-color="#E94530" stop-opacity="0"/>
<stop offset="0.04" stop-color="#E94D34" stop-opacity="0.1"/>
<stop offset="0.14" stop-color="#E95E3C" stop-opacity="0.31"/>
<stop offset="0.24" stop-color="#E96D44" stop-opacity="0.49"/>
<stop offset="0.34" stop-color="#EA7A4B" stop-opacity="0.65"/>
<stop offset="0.45" stop-color="#EA8550" stop-opacity="0.78"/>
<stop offset="0.56" stop-color="#EA8D54" stop-opacity="0.88"/>
<stop offset="0.69" stop-color="#EA9357" stop-opacity="0.95"/>
<stop offset="0.82" stop-color="#EA9659" stop-opacity="0.99"/>
<stop offset="1" stop-color="#EB985A"/>
</linearGradient>
</defs>
</svg>
